<svg xmlns="http://www.w3.org/2000/svg" version="1.1" xmlns:xlink="http://www.w3.org/1999/xlink" viewBox="0 0 200 200" width="200" height="200"><rect width="200" height="200" fill="url('#gradient')"></rect><defs><linearGradient id="gradient" gradientTransform="rotate(160 0.5 0.5)"><stop offset="0%" stop-color="#472027"></stop><stop offset="100%" stop-color="#192025"></stop></linearGradient></defs><g><g fill="#f3bd7d" transform="matrix(9.394495412844037,0,0,9.394495412844037,14.695945287789769,149.88726615905762)" stroke="#c06a3e" stroke-width="0.55"><path d="M9.98 0L9.15-2.66L4.45-2.66L3.63 0L-0.03 0L5.19-14.22L8.41-14.22L13.66 0L9.98 0ZM6.80-10.23L5.27-5.30L8.33-5.30L6.80-10.23ZM14.79-10.57L18.09-10.57L18.09 0.36Q18.08 2.24 17.01 3.25Q15.95 4.27 14.04 4.27L14.04 4.27Q13.22 4.27 12.49 4.10L12.49 4.10L12.49 1.61Q13.06 1.70 13.42 1.70L13.42 1.70Q14.79 1.70 14.79 0.34L14.79 0.34L14.79-10.57ZM14.54-13.29L14.54-13.29Q14.54-13.99 15.05-14.44Q15.56-14.89 16.37-14.89Q17.18-14.89 17.69-14.44Q18.19-13.99 18.19-13.29Q18.19-12.59 17.69-12.14Q17.18-11.69 16.37-11.69Q15.56-11.69 15.05-12.14Q14.54-12.59 14.54-13.29Z"></path></g></g><style>@media (prefers-color-scheme: light) { :root { filter: none; } }
@media (prefers-color-scheme: dark) { :root { filter: none; } }
</style></svg>